# xmcd
#
# Track frame offsets:
#	150
#	11302
#	22576
#	34337
#	45492
#	58371
#	70412
#	82749
#	99916
#	116357
#	132302
#	161276
#
# Disc length: 2459
#
# Revision: 1
# Processed by: cddbd v1.5.1PL0 Copyright (c) Steve Scherf et al.
# Submitted via: dBpowerAMP V4.0
# Normalized: r0:TRMNUM
#
DISCID=8609990c
DTITLE=Ambros Goeller - The Spirit Within
DYEAR=2002
DGENRE=Native American
TTITLE0=First Flute Song
TTITLE1=Flight Of Wambli
TTITLE2=Sunflower
TTITLE3=Yearning
TTITLE4=Memories
TTITLE5=Four Winds Song
TTITLE6=The Dogman
TTITLE7=Firecrow
TTITLE8=Butterfly To The Wind
TTITLE9=Bluebird
TTITLE10=Warriors Dream
TTITLE11=Mitakuye Oyasin
EXTD=AMBROS GOELLER\nThe Franconian Fluteman
EXTT0=
EXTT1=
EXTT2=
EXTT3=
EXTT4=
EXTT5=
EXTT6=
EXTT7=
EXTT8=
EXTT9=
EXTT10=
EXTT11=
PLAYORDER=
